<svg xmlns="http://www.w3.org/2000/svg" xmlns:xlink="http://www.w3.org/1999/xlink" width="500" zoomAndPan="magnify" viewBox="0 0 375 225" height="300" preserveAspectRatio="xMidYMid meet" version="1.0"><defs><g/><clipPath id="48648f25d3"><path d="M 38.195312 64.007812 L 336.804688 64.007812 L 336.804688 151.996094 L 38.195312 151.996094 Z M 38.195312 64.007812 " clip-rule="nonzero"/></clipPath><clipPath id="7f6777a02a"><path d="M 58.117188 82.101562 L 110.617188 82.101562 L 110.617188 133.851562 L 58.117188 133.851562 Z M 58.117188 82.101562 " clip-rule="nonzero"/></clipPath><clipPath id="c2961eae3d"><path d="M 89 105 L 110.617188 105 L 110.617188 111 L 89 111 Z M 89 105 " clip-rule="nonzero"/></clipPath><clipPath id="b9a0a2225b"><path d="M 58.117188 105 L 79 105 L 79 111 L 58.117188 111 Z M 58.117188 105 " clip-rule="nonzero"/></clipPath><clipPath id="968919c5bb"><path d="M 121.609375 85.398438 L 139.679688 85.398438 L 139.679688 91.566406 L 121.609375 91.566406 Z M 121.609375 85.398438 " clip-rule="nonzero"/></clipPath><clipPath id="c30d3e323f"><path d="M 121.609375 95.433594 L 139.679688 95.433594 L 139.679688 101.882812 L 121.609375 101.882812 Z M 121.609375 95.433594 " clip-rule="nonzero"/></clipPath><clipPath id="7be31ffef9"><path d="M 185.753906 85.398438 L 201.5625 85.398438 L 201.5625 91.566406 L 185.753906 91.566406 Z M 185.753906 85.398438 " clip-rule="nonzero"/></clipPath><clipPath id="1cc10d80d9"><path d="M 184.683594 95.433594 L 202.515625 95.433594 L 202.515625 101.882812 L 184.683594 101.882812 Z M 184.683594 95.433594 " clip-rule="nonzero"/></clipPath><clipPath id="083a2ca505"><path d="M 255.019531 85.398438 L 270.707031 85.398438 L 270.707031 91.566406 L 255.019531 91.566406 Z M 255.019531 85.398438 " clip-rule="nonzero"/></clipPath><clipPath id="639c6984ab"><path d="M 255.019531 95.433594 L 270.707031 95.433594 L 270.707031 101.882812 L 255.019531 101.882812 Z M 255.019531 95.433594 " clip-rule="nonzero"/></clipPath><clipPath id="30d57fb45b"><path d="M 286.695312 112.886719 L 302.855469 112.886719 L 302.855469 119.050781 L 286.695312 119.050781 Z M 286.695312 112.886719 " clip-rule="nonzero"/></clipPath><clipPath id="7571aff942"><path d="M 286.695312 122.921875 L 302.855469 122.921875 L 302.855469 129.367188 L 286.695312 129.367188 Z M 286.695312 122.921875 " clip-rule="nonzero"/></clipPath><clipPath id="557a0f4a3a"><path d="M 145.644531 112.886719 L 161.691406 112.886719 L 161.691406 119.050781 L 145.644531 119.050781 Z M 145.644531 112.886719 " clip-rule="nonzero"/></clipPath><clipPath id="e808b9e989"><path d="M 145.644531 122.921875 L 161.691406 122.921875 L 161.691406 129.367188 L 145.644531 129.367188 Z M 145.644531 122.921875 " clip-rule="nonzero"/></clipPath></defs><g clip-path="url(#48648f25d3)"><path fill="#e89611" d="M 38.195312 64.007812 L 336.804688 64.007812 L 336.804688 151.996094 L 38.195312 151.996094 Z M 38.195312 64.007812 " fill-opacity="1" fill-rule="nonzero"/></g><g clip-path="url(#7f6777a02a)"><path fill="#fffef4" d="M 88.863281 105.753906 L 110.253906 85.589844 C 110.253906 85.589844 106.789062 82.125 106.789062 82.125 L 86.851562 100.917969 L 86.855469 82.113281 L 81.957031 82.113281 L 81.960938 100.890625 L 62.027344 82.101562 L 58.5625 85.566406 C 58.5625 85.566406 79.949219 105.726562 79.949219 105.726562 C 79.957031 105.734375 79.964844 105.738281 79.972656 105.746094 C 81.253906 106.96875 81.253906 109.03125 79.972656 110.25 C 79.964844 110.257812 79.957031 110.261719 79.949219 110.269531 L 58.5625 130.433594 C 58.5625 130.433594 62.027344 133.898438 62.027344 133.898438 L 81.960938 115.105469 L 81.957031 133.882812 L 86.855469 133.882812 L 86.851562 115.082031 L 106.789062 133.871094 L 110.253906 130.40625 C 110.253906 130.40625 88.863281 110.242188 88.863281 110.242188 C 88.855469 110.238281 88.847656 110.230469 88.84375 110.222656 C 87.574219 109.015625 87.574219 106.980469 88.84375 105.773438 C 88.847656 105.765625 88.855469 105.761719 88.863281 105.753906 Z M 88.863281 105.753906 " fill-opacity="1" fill-rule="nonzero"/></g><g clip-path="url(#c2961eae3d)"><path fill="#fffef4" d="M 94.371094 105.546875 L 91.359375 105.546875 C 91.359375 105.546875 91.351562 105.554688 91.335938 105.5625 C 89.503906 106.664062 89.503906 109.332031 91.335938 110.433594 C 91.351562 110.445312 91.359375 110.449219 91.359375 110.449219 L 110.699219 110.449219 L 110.699219 105.546875 Z M 94.371094 105.546875 " fill-opacity="1" fill-rule="nonzero"/></g><g clip-path="url(#b9a0a2225b)"><path fill="#fffef4" d="M 74.445312 105.546875 L 77.453125 105.546875 C 77.453125 105.546875 77.460938 105.554688 77.476562 105.5625 C 79.3125 106.664062 79.3125 109.332031 77.476562 110.433594 C 77.460938 110.445312 77.453125 110.449219 77.453125 110.449219 L 58.117188 110.449219 L 58.117188 105.546875 Z M 74.445312 105.546875 " fill-opacity="1" fill-rule="nonzero"/></g><g fill="#000000" fill-opacity="1"><g transform="translate(121.61081, 105.91111)"><g><path d="M 7.3125 -20.46875 L 7.3125 -14.34375 L 15.546875 -14.34375 L 15.546875 -10.46875 L 7.3125 -10.46875 L 7.3125 -3.984375 L 16.59375 -3.984375 L 16.59375 0 L 2.421875 0 L 2.421875 -24.46875 L 16.59375 -24.46875 L 16.59375 -20.46875 Z M 7.3125 -20.46875 "/></g></g></g><g fill="#000000" fill-opacity="1"><g transform="translate(140.232863, 105.91111)"><g><path d="M 17.046875 0 L 11.765625 -8.21875 L 6.96875 0 L 1.4375 0 L 9.140625 -12.3125 L 1.328125 -24.4375 L 6.96875 -24.4375 L 12.25 -16.234375 L 17.015625 -24.4375 L 22.546875 -24.4375 L 14.875 -12.140625 L 22.6875 0 Z M 17.046875 0 "/></g></g></g><g fill="#000000" fill-opacity="1"><g transform="translate(164.245512, 105.91111)"><g><path d="M 19.046875 -24.4375 L 19.046875 -20.46875 L 12.53125 -20.46875 L 12.53125 0 L 7.625 0 L 7.625 -20.46875 L 1.125 -20.46875 L 1.125 -24.4375 Z M 19.046875 -24.4375 "/></g></g></g><g fill="#000000" fill-opacity="1"><g transform="translate(184.442744, 105.91111)"><g><path d="M 7.3125 -20.46875 L 7.3125 -14.34375 L 15.546875 -14.34375 L 15.546875 -10.46875 L 7.3125 -10.46875 L 7.3125 -3.984375 L 16.59375 -3.984375 L 16.59375 0 L 2.421875 0 L 2.421875 -24.46875 L 16.59375 -24.46875 L 16.59375 -20.46875 Z M 7.3125 -20.46875 "/></g></g></g><g fill="#000000" fill-opacity="1"><g transform="translate(203.064796, 105.91111)"><g><path d="M 23.3125 0 L 18.40625 0 L 7.3125 -16.765625 L 7.3125 0 L 2.421875 0 L 2.421875 -24.46875 L 7.3125 -24.46875 L 18.40625 -7.671875 L 18.40625 -24.46875 L 23.3125 -24.46875 Z M 23.3125 0 "/></g></g></g><g fill="#000000" fill-opacity="1"><g transform="translate(228.792638, 105.91111)"><g><path d="M 10.953125 -24.4375 C 13.523438 -24.4375 15.785156 -23.929688 17.734375 -22.921875 C 19.679688 -21.921875 21.179688 -20.492188 22.234375 -18.640625 C 23.296875 -16.785156 23.828125 -14.632812 23.828125 -12.1875 C 23.828125 -9.726562 23.296875 -7.582031 22.234375 -5.75 C 21.179688 -3.925781 19.679688 -2.507812 17.734375 -1.5 C 15.785156 -0.5 13.523438 0 10.953125 0 L 2.421875 0 L 2.421875 -24.4375 Z M 10.78125 -4.171875 C 13.34375 -4.171875 15.320312 -4.867188 16.71875 -6.265625 C 18.125 -7.660156 18.828125 -9.632812 18.828125 -12.1875 C 18.828125 -14.726562 18.125 -16.710938 16.71875 -18.140625 C 15.320312 -19.578125 13.34375 -20.296875 10.78125 -20.296875 L 7.3125 -20.296875 L 7.3125 -4.171875 Z M 10.78125 -4.171875 "/></g></g></g><g fill="#000000" fill-opacity="1"><g transform="translate(253.890409, 105.91111)"><g><path d="M 7.3125 -20.46875 L 7.3125 -14.34375 L 15.546875 -14.34375 L 15.546875 -10.46875 L 7.3125 -10.46875 L 7.3125 -3.984375 L 16.59375 -3.984375 L 16.59375 0 L 2.421875 0 L 2.421875 -24.46875 L 16.59375 -24.46875 L 16.59375 -20.46875 Z M 7.3125 -20.46875 "/></g></g></g><g fill="#000000" fill-opacity="1"><g transform="translate(272.512462, 105.91111)"><g><path d="M 10.953125 -24.4375 C 13.523438 -24.4375 15.785156 -23.929688 17.734375 -22.921875 C 19.679688 -21.921875 21.179688 -20.492188 22.234375 -18.640625 C 23.296875 -16.785156 23.828125 -14.632812 23.828125 -12.1875 C 23.828125 -9.726562 23.296875 -7.582031 22.234375 -5.75 C 21.179688 -3.925781 19.679688 -2.507812 17.734375 -1.5 C 15.785156 -0.5 13.523438 0 10.953125 0 L 2.421875 0 L 2.421875 -24.4375 Z M 10.78125 -4.171875 C 13.34375 -4.171875 15.320312 -4.867188 16.71875 -6.265625 C 18.125 -7.660156 18.828125 -9.632812 18.828125 -12.1875 C 18.828125 -14.726562 18.125 -16.710938 16.71875 -18.140625 C 15.320312 -19.578125 13.34375 -20.296875 10.78125 -20.296875 L 7.3125 -20.296875 L 7.3125 -4.171875 Z M 10.78125 -4.171875 "/></g></g></g><g fill="#000000" fill-opacity="1"><g transform="translate(121.61081, 133.395516)"><g><path d="M 15.015625 0 L 9.625 -9.515625 L 7.3125 -9.515625 L 7.3125 0 L 2.421875 0 L 2.421875 -24.4375 L 11.578125 -24.4375 C 13.472656 -24.4375 15.082031 -24.101562 16.40625 -23.4375 C 17.738281 -22.769531 18.738281 -21.867188 19.40625 -20.734375 C 20.070312 -19.609375 20.40625 -18.34375 20.40625 -16.9375 C 20.40625 -15.332031 19.9375 -13.878906 19 -12.578125 C 18.070312 -11.285156 16.6875 -10.394531 14.84375 -9.90625 L 20.6875 0 Z M 7.3125 -13.1875 L 11.40625 -13.1875 C 12.738281 -13.1875 13.726562 -13.507812 14.375 -14.15625 C 15.03125 -14.800781 15.359375 -15.691406 15.359375 -16.828125 C 15.359375 -17.953125 15.03125 -18.820312 14.375 -19.4375 C 13.726562 -20.0625 12.738281 -20.375 11.40625 -20.375 L 7.3125 -20.375 Z M 7.3125 -13.1875 "/></g></g></g><g fill="#000000" fill-opacity="1"><g transform="translate(144.048289, 133.395516)"><g><path d="M 7.3125 -20.46875 L 7.3125 -14.34375 L 15.546875 -14.34375 L 15.546875 -10.46875 L 7.3125 -10.46875 L 7.3125 -3.984375 L 16.59375 -3.984375 L 16.59375 0 L 2.421875 0 L 2.421875 -24.46875 L 16.59375 -24.46875 L 16.59375 -20.46875 Z M 7.3125 -20.46875 "/></g></g></g><g fill="#000000" fill-opacity="1"><g transform="translate(162.670341, 133.395516)"><g><path d="M 10.84375 0.25 C 9.144531 0.25 7.613281 -0.0390625 6.25 -0.625 C 4.882812 -1.207031 3.800781 -2.046875 3 -3.140625 C 2.207031 -4.242188 1.800781 -5.539062 1.78125 -7.03125 L 7.03125 -7.03125 C 7.101562 -6.03125 7.457031 -5.238281 8.09375 -4.65625 C 8.738281 -4.070312 9.625 -3.78125 10.75 -3.78125 C 11.882812 -3.78125 12.78125 -4.050781 13.4375 -4.59375 C 14.09375 -5.144531 14.421875 -5.863281 14.421875 -6.75 C 14.421875 -7.476562 14.195312 -8.070312 13.75 -8.53125 C 13.3125 -9 12.757812 -9.367188 12.09375 -9.640625 C 11.425781 -9.910156 10.507812 -10.207031 9.34375 -10.53125 C 7.757812 -11 6.46875 -11.457031 5.46875 -11.90625 C 4.476562 -12.363281 3.628906 -13.050781 2.921875 -13.96875 C 2.210938 -14.894531 1.859375 -16.128906 1.859375 -17.671875 C 1.859375 -19.117188 2.21875 -20.378906 2.9375 -21.453125 C 3.664062 -22.523438 4.679688 -23.347656 5.984375 -23.921875 C 7.285156 -24.492188 8.78125 -24.78125 10.46875 -24.78125 C 12.988281 -24.78125 15.035156 -24.164062 16.609375 -22.9375 C 18.179688 -21.71875 19.050781 -20.007812 19.21875 -17.8125 L 13.828125 -17.8125 C 13.773438 -18.65625 13.414062 -19.347656 12.75 -19.890625 C 12.09375 -20.441406 11.210938 -20.71875 10.109375 -20.71875 C 9.160156 -20.71875 8.398438 -20.472656 7.828125 -19.984375 C 7.253906 -19.492188 6.96875 -18.78125 6.96875 -17.84375 C 6.96875 -17.195312 7.179688 -16.65625 7.609375 -16.21875 C 8.046875 -15.789062 8.582031 -15.441406 9.21875 -15.171875 C 9.863281 -14.898438 10.769531 -14.59375 11.9375 -14.25 C 13.519531 -13.78125 14.8125 -13.3125 15.8125 -12.84375 C 16.820312 -12.375 17.6875 -11.671875 18.40625 -10.734375 C 19.132812 -9.804688 19.5 -8.582031 19.5 -7.0625 C 19.5 -5.757812 19.160156 -4.546875 18.484375 -3.421875 C 17.804688 -2.304688 16.8125 -1.414062 15.5 -0.75 C 14.195312 -0.0820312 12.644531 0.25 10.84375 0.25 Z M 10.84375 0.25 "/></g></g></g><g fill="#000000" fill-opacity="1"><g transform="translate(183.987692, 133.395516)"><g><path d="M 13.75 0.25 C 11.46875 0.25 9.367188 -0.285156 7.453125 -1.359375 C 5.535156 -2.429688 4.015625 -3.921875 2.890625 -5.828125 C 1.773438 -7.734375 1.21875 -9.882812 1.21875 -12.28125 C 1.21875 -14.664062 1.773438 -16.804688 2.890625 -18.703125 C 4.015625 -20.609375 5.535156 -22.097656 7.453125 -23.171875 C 9.367188 -24.242188 11.46875 -24.78125 13.75 -24.78125 C 16.0625 -24.78125 18.164062 -24.242188 20.0625 -23.171875 C 21.96875 -22.097656 23.472656 -20.609375 24.578125 -18.703125 C 25.691406 -16.804688 26.25 -14.664062 26.25 -12.28125 C 26.25 -9.882812 25.691406 -7.734375 24.578125 -5.828125 C 23.472656 -3.921875 21.960938 -2.429688 20.046875 -1.359375 C 18.140625 -0.285156 16.039062 0.25 13.75 0.25 Z M 13.75 -4.125 C 15.21875 -4.125 16.507812 -4.457031 17.625 -5.125 C 18.75 -5.789062 19.625 -6.738281 20.25 -7.96875 C 20.882812 -9.207031 21.203125 -10.644531 21.203125 -12.28125 C 21.203125 -13.914062 20.882812 -15.34375 20.25 -16.5625 C 19.625 -17.789062 18.75 -18.734375 17.625 -19.390625 C 16.507812 -20.046875 15.21875 -20.375 13.75 -20.375 C 12.28125 -20.375 10.976562 -20.046875 9.84375 -19.390625 C 8.71875 -18.734375 7.835938 -17.789062 7.203125 -16.5625 C 6.578125 -15.34375 6.265625 -13.914062 6.265625 -12.28125 C 6.265625 -10.644531 6.578125 -9.207031 7.203125 -7.96875 C 7.835938 -6.738281 8.71875 -5.789062 9.84375 -5.125 C 10.976562 -4.457031 12.28125 -4.125 13.75 -4.125 Z M 13.75 -4.125 "/></g></g></g><g fill="#000000" fill-opacity="1"><g transform="translate(211.465725, 133.395516)"><g><path d="M 7.25 -24.4375 L 7.25 -9.3125 C 7.25 -7.65625 7.675781 -6.390625 8.53125 -5.515625 C 9.394531 -4.640625 10.613281 -4.203125 12.1875 -4.203125 C 13.769531 -4.203125 14.992188 -4.640625 15.859375 -5.515625 C 16.722656 -6.390625 17.15625 -7.65625 17.15625 -9.3125 L 17.15625 -24.4375 L 22.078125 -24.4375 L 22.078125 -9.34375 C 22.078125 -7.269531 21.628906 -5.515625 20.734375 -4.078125 C 19.835938 -2.640625 18.632812 -1.554688 17.125 -0.828125 C 15.625 -0.109375 13.953125 0.25 12.109375 0.25 C 10.285156 0.25 8.632812 -0.109375 7.15625 -0.828125 C 5.675781 -1.554688 4.503906 -2.640625 3.640625 -4.078125 C 2.773438 -5.515625 2.34375 -7.269531 2.34375 -9.34375 L 2.34375 -24.4375 Z M 7.25 -24.4375 "/></g></g></g><g fill="#000000" fill-opacity="1"><g transform="translate(235.863421, 133.395516)"><g><path d="M 15.015625 0 L 9.625 -9.515625 L 7.3125 -9.515625 L 7.3125 0 L 2.421875 0 L 2.421875 -24.4375 L 11.578125 -24.4375 C 13.472656 -24.4375 15.082031 -24.101562 16.40625 -23.4375 C 17.738281 -22.769531 18.738281 -21.867188 19.40625 -20.734375 C 20.070312 -19.609375 20.40625 -18.34375 20.40625 -16.9375 C 20.40625 -15.332031 19.9375 -13.878906 19 -12.578125 C 18.070312 -11.285156 16.6875 -10.394531 14.84375 -9.90625 L 20.6875 0 Z M 7.3125 -13.1875 L 11.40625 -13.1875 C 12.738281 -13.1875 13.726562 -13.507812 14.375 -14.15625 C 15.03125 -14.800781 15.359375 -15.691406 15.359375 -16.828125 C 15.359375 -17.953125 15.03125 -18.820312 14.375 -19.4375 C 13.726562 -20.0625 12.738281 -20.375 11.40625 -20.375 L 7.3125 -20.375 Z M 7.3125 -13.1875 "/></g></g></g><g fill="#000000" fill-opacity="1"><g transform="translate(258.3009, 133.395516)"><g><path d="M 1.21875 -12.25 C 1.21875 -14.65625 1.757812 -16.804688 2.84375 -18.703125 C 3.9375 -20.609375 5.421875 -22.09375 7.296875 -23.15625 C 9.171875 -24.21875 11.273438 -24.75 13.609375 -24.75 C 16.335938 -24.75 18.726562 -24.046875 20.78125 -22.640625 C 22.84375 -21.242188 24.28125 -19.304688 25.09375 -16.828125 L 19.453125 -16.828125 C 18.898438 -17.992188 18.113281 -18.867188 17.09375 -19.453125 C 16.082031 -20.035156 14.910156 -20.328125 13.578125 -20.328125 C 12.148438 -20.328125 10.882812 -19.992188 9.78125 -19.328125 C 8.675781 -18.671875 7.8125 -17.734375 7.1875 -16.515625 C 6.570312 -15.304688 6.265625 -13.882812 6.265625 -12.25 C 6.265625 -10.632812 6.570312 -9.210938 7.1875 -7.984375 C 7.8125 -6.765625 8.675781 -5.820312 9.78125 -5.15625 C 10.882812 -4.5 12.148438 -4.171875 13.578125 -4.171875 C 14.910156 -4.171875 16.082031 -4.46875 17.09375 -5.0625 C 18.113281 -5.65625 18.898438 -6.535156 19.453125 -7.703125 L 25.09375 -7.703125 C 24.28125 -5.203125 22.851562 -3.257812 20.8125 -1.875 C 18.769531 -0.488281 16.367188 0.203125 13.609375 0.203125 C 11.273438 0.203125 9.171875 -0.320312 7.296875 -1.375 C 5.421875 -2.4375 3.9375 -3.910156 2.84375 -5.796875 C 1.757812 -7.691406 1.21875 -9.84375 1.21875 -12.25 Z M 1.21875 -12.25 "/></g></g></g><g fill="#000000" fill-opacity="1"><g transform="translate(285.183867, 133.395516)"><g><path d="M 7.3125 -20.46875 L 7.3125 -14.34375 L 15.546875 -14.34375 L 15.546875 -10.46875 L 7.3125 -10.46875 L 7.3125 -3.984375 L 16.59375 -3.984375 L 16.59375 0 L 2.421875 0 L 2.421875 -24.46875 L 16.59375 -24.46875 L 16.59375 -20.46875 Z M 7.3125 -20.46875 "/></g></g></g><g fill="#000000" fill-opacity="1"><g transform="translate(303.805912, 133.395516)"><g><path d="M 10.84375 0.25 C 9.144531 0.25 7.613281 -0.0390625 6.25 -0.625 C 4.882812 -1.207031 3.800781 -2.046875 3 -3.140625 C 2.207031 -4.242188 1.800781 -5.539062 1.78125 -7.03125 L 7.03125 -7.03125 C 7.101562 -6.03125 7.457031 -5.238281 8.09375 -4.65625 C 8.738281 -4.070312 9.625 -3.78125 10.75 -3.78125 C 11.882812 -3.78125 12.78125 -4.050781 13.4375 -4.59375 C 14.09375 -5.144531 14.421875 -5.863281 14.421875 -6.75 C 14.421875 -7.476562 14.195312 -8.070312 13.75 -8.53125 C 13.3125 -9 12.757812 -9.367188 12.09375 -9.640625 C 11.425781 -9.910156 10.507812 -10.207031 9.34375 -10.53125 C 7.757812 -11 6.46875 -11.457031 5.46875 -11.90625 C 4.476562 -12.363281 3.628906 -13.050781 2.921875 -13.96875 C 2.210938 -14.894531 1.859375 -16.128906 1.859375 -17.671875 C 1.859375 -19.117188 2.21875 -20.378906 2.9375 -21.453125 C 3.664062 -22.523438 4.679688 -23.347656 5.984375 -23.921875 C 7.285156 -24.492188 8.78125 -24.78125 10.46875 -24.78125 C 12.988281 -24.78125 15.035156 -24.164062 16.609375 -22.9375 C 18.179688 -21.71875 19.050781 -20.007812 19.21875 -17.8125 L 13.828125 -17.8125 C 13.773438 -18.65625 13.414062 -19.347656 12.75 -19.890625 C 12.09375 -20.441406 11.210938 -20.71875 10.109375 -20.71875 C 9.160156 -20.71875 8.398438 -20.472656 7.828125 -19.984375 C 7.253906 -19.492188 6.96875 -18.78125 6.96875 -17.84375 C 6.96875 -17.195312 7.179688 -16.65625 7.609375 -16.21875 C 8.046875 -15.789062 8.582031 -15.441406 9.21875 -15.171875 C 9.863281 -14.898438 10.769531 -14.59375 11.9375 -14.25 C 13.519531 -13.78125 14.8125 -13.3125 15.8125 -12.84375 C 16.820312 -12.375 17.6875 -11.671875 18.40625 -10.734375 C 19.132812 -9.804688 19.5 -8.582031 19.5 -7.0625 C 19.5 -5.757812 19.160156 -4.546875 18.484375 -3.421875 C 17.804688 -2.304688 16.8125 -1.414062 15.5 -0.75 C 14.195312 -0.0820312 12.644531 0.25 10.84375 0.25 Z M 10.84375 0.25 "/></g></g></g><g clip-path="url(#968919c5bb)"><path fill="#e89611" d="M 121.609375 85.398438 L 139.679688 85.398438 L 139.679688 91.566406 L 121.609375 91.566406 Z M 121.609375 85.398438 " fill-opacity="1" fill-rule="nonzero"/></g><g clip-path="url(#c30d3e323f)"><path fill="#e89611" d="M 121.609375 95.433594 L 139.679688 95.433594 L 139.679688 101.882812 L 121.609375 101.882812 Z M 121.609375 95.433594 " fill-opacity="1" fill-rule="nonzero"/></g><g clip-path="url(#7be31ffef9)"><path fill="#e89611" d="M 185.753906 85.398438 L 201.5625 85.398438 L 201.5625 91.566406 L 185.753906 91.566406 Z M 185.753906 85.398438 " fill-opacity="1" fill-rule="nonzero"/></g><g clip-path="url(#1cc10d80d9)"><path fill="#e89611" d="M 184.683594 95.433594 L 202.515625 95.433594 L 202.515625 101.882812 L 184.683594 101.882812 Z M 184.683594 95.433594 " fill-opacity="1" fill-rule="nonzero"/></g><g clip-path="url(#083a2ca505)"><path fill="#e89611" d="M 255.019531 85.398438 L 270.707031 85.398438 L 270.707031 91.566406 L 255.019531 91.566406 Z M 255.019531 85.398438 " fill-opacity="1" fill-rule="nonzero"/></g><g clip-path="url(#639c6984ab)"><path fill="#e89611" d="M 255.019531 95.433594 L 270.707031 95.433594 L 270.707031 101.882812 L 255.019531 101.882812 Z M 255.019531 95.433594 " fill-opacity="1" fill-rule="nonzero"/></g><g clip-path="url(#30d57fb45b)"><path fill="#e89611" d="M 286.695312 112.886719 L 302.855469 112.886719 L 302.855469 119.050781 L 286.695312 119.050781 Z M 286.695312 112.886719 " fill-opacity="1" fill-rule="nonzero"/></g><g clip-path="url(#7571aff942)"><path fill="#e89611" d="M 286.695312 122.921875 L 302.855469 122.921875 L 302.855469 129.367188 L 286.695312 129.367188 Z M 286.695312 122.921875 " fill-opacity="1" fill-rule="nonzero"/></g><g clip-path="url(#557a0f4a3a)"><path fill="#e89611" d="M 145.644531 112.886719 L 161.691406 112.886719 L 161.691406 119.050781 L 145.644531 119.050781 Z M 145.644531 112.886719 " fill-opacity="1" fill-rule="nonzero"/></g><g clip-path="url(#e808b9e989)"><path fill="#e89611" d="M 145.644531 122.921875 L 161.691406 122.921875 L 161.691406 129.367188 L 145.644531 129.367188 Z M 145.644531 122.921875 " fill-opacity="1" fill-rule="nonzero"/></g></svg>